<svg id="Layer_1" data-name="Layer 1" xmlns="http://www.w3.org/2000/svg" viewBox="0 0 668.76 605.45" width="668.76" height="605.45">
  <defs>
    <style>
      .cls-1 {
        fill: #9c27b0;
      }

      .cls-2 {
        fill: #fff;
      }

      .cls-3 {
        fill: #2196f3;
      }

      .cls-4 {
        fill: #ff9800;
      }

      .cls-5 {
        fill: #4caf50;
      }

      .cls-6 {
        fill: none;
        stroke: #2196f3;
        stroke-miterlimit: 10;
        stroke-width: 6px;
      }
    </style>
  </defs>
  <path class="cls-5" d="M353.72,75c124.4,0,225.24,100.84,225.24,225.24h-84.47c0-77.75-63.03-140.78-140.78-140.78v-84.47Z" />
  <path class="cls-3" d="M578.96,300.24c0,124.4-100.84,225.24-225.24,225.24v-84.47c77.75,0,140.78-63.03,140.78-140.78h84.47Z" />
  <path class="cls-4" d="M353.72,525.49c-124.4,0-225.24-100.84-225.24-225.24h84.47c0,77.75,63.03,140.78,140.78,140.78v84.47Z" />
  <path class="cls-1" d="M128.48,300.24c0-124.4,100.84-225.24,225.24-225.24v84.47c-77.75,0-140.78,63.03-140.78,140.78h-84.47Z" />
  <rect class="cls-1" x="50.68" y="7.21" width="70.07" height="150" rx="4" ry="4" />
  <rect class="cls-2" x="62.36" y="18.75" width="46.72" height="115.38" rx="2" ry="2" />
  <ellipse class="cls-2" cx="85.71" cy="145.67" rx="5.84" ry="5.77" />
  <rect class="cls-5" x="551.97" width="116.79" height="150" rx="4" ry="4" />
  <rect class="cls-2" x="563.65" y="11.54" width="93.43" height="126.92" rx="2" ry="2" />
  <ellipse class="cls-2" cx="610.37" cy="11.54" rx="4.38" ry="4.33" />
  <rect class="cls-4" y="455.45" width="171.43" height="107.14" rx="3" ry="3" />
  <rect class="cls-2" x="14.29" y="469.74" width="142.86" height="78.57" rx="2" ry="2" />
  <rect class="cls-4" x="71.43" y="569.74" width="28.57" height="21.43" />
  <path class="cls-4" d="M50,591.16h71.43c3.94,0,7.14,3.2,7.14,7.14h0c0,3.94-3.2,7.14-7.14,7.14H50c-3.94,0-7.14-3.2-7.14-7.14h0c0-3.94,3.2-7.14,7.14-7.14Z" />
  <path class="cls-6" d="M511.26,530.45c0-41.42,33.58-75,75-75s75,33.58,75,75" />
  <rect class="cls-3" x="503.76" y="530.45" width="30" height="75" rx="3" ry="3" />
  <rect class="cls-3" x="638.76" y="530.45" width="30" height="75" rx="3" ry="3" />
  <path class="cls-2" d="M518.76,545.45h0c4.14,0,7.5,3.36,7.5,7.5v30c0,4.14-3.36,7.5-7.5,7.5h0c-4.14,0-7.5-3.36-7.5-7.5v-30c0-4.14,3.36-7.5,7.5-7.5Z" />
  <path class="cls-2" d="M653.76,545.45h0c4.14,0,7.5,3.36,7.5,7.5v30c0,4.14-3.36,7.5-7.5,7.5h0c-4.14,0-7.5-3.36-7.5-7.5v-30c0-4.14,3.36-7.5,7.5-7.5Z" />
</svg>